<svg width="28" height="28" viewBox="0 0 28 28" fill="none" xmlns="http://www.w3.org/2000/svg">
<path d="M13.9999 23.9168C19.4767 23.9168 23.9166 19.477 23.9166 14.0002C23.9166 8.52334 19.4767 4.0835 13.9999 4.0835C8.5231 4.0835 4.08325 8.52334 4.08325 14.0002C4.08325 19.477 8.5231 23.9168 13.9999 23.9168Z" stroke="#37474F" stroke-width="2" stroke-linecap="round" stroke-linejoin="round"/>
<path d="M14.0001 16.8332C15.5649 16.8332 16.8334 15.5646 16.8334 13.9998C16.8334 12.435 15.5649 11.1665 14.0001 11.1665C12.4353 11.1665 11.1667 12.435 11.1667 13.9998C11.1667 15.5646 12.4353 16.8332 14.0001 16.8332Z" fill="#37474F" stroke="#37474F" stroke-width="2" stroke-linecap="round" stroke-linejoin="round"/>
<path d="M14 26.7502V21.0835" stroke="#37474F" stroke-width="2" stroke-linecap="round" stroke-linejoin="round"/>
<path d="M14 1.25V6.91667" stroke="#37474F" stroke-width="2" stroke-linecap="round" stroke-linejoin="round"/>
<path d="M6.91667 14H1.25" stroke="#37474F" stroke-width="2" stroke-linecap="round" stroke-linejoin="round"/>
<path d="M26.7499 14H21.0833" stroke="#37474F" stroke-width="2" stroke-linecap="round" stroke-linejoin="round"/>
</svg>
